{
  "accessors": [
    {
      "bufferView": 2,
      "componentType": 5126,
      "count": 4,
      "max": [167.02890014648438, 167.02890014648438, 0.0],
      "min": [-167.02890014648438, -167.02890014648438, 0.0],
      "type": "VEC3"
    },
    {
      "bufferView": 2,
      "byteOffset": 48,
      "componentType": 5126,
      "count": 4,
      "max": [0.0, 0.0, 1.0],
      "min": [0.0, 0.0, 1.0],
      "type": "VEC3"
    },
    {
      "bufferView": 1,
      "componentType": 5126,
      "count": 4,
      "max": [1.0, 1.0],
      "min": [2.9802322387695313e-8, 2.9802322387695313e-8],
      "type": "VEC2"
    },
    {
      "bufferView": 0,
      "componentType": 5125,
      "count": 6,
      "type": "SCALAR"
    },
    {
      "bufferView": 2,
      "byteOffset": 96,
      "componentType": 5126,
      "count": 17621,
      "max": [56.79145050048828, 48.95220184326172, 88.04657745361328],
      "min": [-56.79145050048828, -48.95220947265625, 26.32756805419922],
      "type": "VEC3"
    },
    {
      "bufferView": 2,
      "byteOffset": 211548,
      "componentType": 5126,
      "count": 17621,
      "max": [0.9999974370002747, 0.9999992847442627, 0.999999463558197],
      "min": [-0.9999979138374329, -0.9999984502792358, -0.9999946355819702],
      "type": "VEC3"
    },
    {
      "bufferView": 3,
      "componentType": 5126,
      "count": 17621,
      "max": [0.9999997615814209, 0.9999972581863403, 0.9996771216392517, 1.0],
      "min": [
        -0.9998410940170288, -0.9999857544898987, -0.9999022483825684, 1.0
      ],
      "type": "VEC4"
    },
    {
      "bufferView": 1,
      "byteOffset": 32,
      "componentType": 5126,
      "count": 17621,
      "max": [5.987999439239502, 7.98234224319458],
      "min": [0.012000000104308128, 0.012000000104308128],
      "type": "VEC2"
    },
    {
      "bufferView": 1,
      "byteOffset": 141000,
      "componentType": 5126,
      "count": 17621,
      "max": [0.9853916168212891, 0.9176306128501892],
      "min": [0.0005000000237487257, 0.0053542908281087875],
      "type": "VEC2"
    },
    {
      "bufferView": 1,
      "byteOffset": 281968,
      "componentType": 5126,
      "count": 17621,
      "max": [0.9853916168212891, 0.9176306128501892],
      "min": [0.0005000000237487257, 0.0053542908281087875],
      "type": "VEC2"
    },
    {
      "bufferView": 0,
      "byteOffset": 24,
      "componentType": 5125,
      "count": 98760,
      "type": "SCALAR"
    },
    {
      "bufferView": 2,
      "byteOffset": 423000,
      "componentType": 5126,
      "count": 2985,
      "max": [39.735267639160156, 44.40729904174805, 34.344505310058594],
      "min": [-39.73529052734375, -49.9347038269043, -0.07743072509765625],
      "type": "VEC3"
    },
    {
      "bufferView": 2,
      "byteOffset": 458820,
      "componentType": 5126,
      "count": 2985,
      "max": [0.9951744675636292, 0.9997208118438721, 1.0],
      "min": [-0.9948633909225464, -0.9993696212768555, -1.0],
      "type": "VEC3"
    },
    {
      "bufferView": 1,
      "byteOffset": 422936,
      "componentType": 5126,
      "count": 2985,
      "max": [0.9742600917816162, 0.6596102714538574],
      "min": [-0.8899999856948853, -0.2520869970321655],
      "type": "VEC2"
    },
    {
      "bufferView": 1,
      "byteOffset": 446816,
      "componentType": 5126,
      "count": 2985,
      "max": [0.9972500205039978, 0.999500036239624],
      "min": [0.0005000000237487257, 0.0005000000237487257],
      "type": "VEC2"
    },
    {
      "bufferView": 1,
      "byteOffset": 470696,
      "componentType": 5126,
      "count": 2985,
      "max": [0.9972500205039978, 0.999500036239624],
      "min": [0.0005000000237487257, 0.0005000000237487257],
      "type": "VEC2"
    },
    {
      "bufferView": 0,
      "byteOffset": 395064,
      "componentType": 5125,
      "count": 11376,
      "type": "SCALAR"
    }
  ],
  "asset": {
    "extras": {
      "author": "MADE.COM (https://sketchfab.com/made-it)",
      "license": "CC-BY-NC-4.0 (http://creativecommons.org/licenses/by-nc/4.0/)",
      "source": "https://sketchfab.com/3d-models/kolton-rocking-chair-marl-grey-e12dc5f4a00d4ce7874be96055f1b81b",
      "title": "Kolton Rocking Chair, Marl Grey"
    },
    "generator": "Sketchfab-12.68.0",
    "version": "2.0"
  },
  "bufferViews": [
    {
      "buffer": 0,
      "byteLength": 440568,
      "name": "floatBufferViews",
      "target": 34963
    },
    {
      "buffer": 0,
      "byteLength": 494576,
      "byteOffset": 440568,
      "byteStride": 8,
      "name": "floatBufferViews",
      "target": 34962
    },
    {
      "buffer": 0,
      "byteLength": 494640,
      "byteOffset": 935144,
      "byteStride": 12,
      "name": "floatBufferViews",
      "target": 34962
    },
    {
      "buffer": 0,
      "byteLength": 281936,
      "byteOffset": 1429784,
      "byteStride": 16,
      "name": "floatBufferViews",
      "target": 34962
    }
  ],
  "buffers": [
    {
      "byteLength": 1711720,
      "uri": "3dModel/rockingChair/rockingChair.bin"
    }
  ],
  "images": [
    {
      "uri": "3dModel/rockingChair/rockingChairTextures/FLOOR_baseColor.png"
    },
    {
      "uri": "3dModel/rockingChair/rockingChairTextures/FABRIC_baseColor.jpeg"
    },
    {
      "uri": "3dModel/rockingChair/rockingChairTextures/FABRIC_metallicRoughness.png"
    },
    {
      "uri": "3dModel/rockingChair/rockingChairTextures/FABRIC_normal.png"
    },
    {
      "uri": "3dModel/rockingChair/rockingChairTextures/WOOD_baseColor.jpeg"
    }
  ],
  "materials": [
    {
      "alphaMode": "BLEND",
      "doubleSided": true,
      "name": "FLOOR",
      "pbrMetallicRoughness": {
        "baseColorFactor": [0.0, 0.0, 0.0, 0.7090320122],
        "baseColorTexture": {
          "index": 0
        },
        "metallicFactor": 0.0
      }
    },
    {
      "doubleSided": true,
      "name": "FABRIC",
      "normalTexture": {
        "index": 3
      },
      "occlusionTexture": {
        "index": 2,
        "strength": 0.7761051829,
        "texCoord": 1
      },
      "pbrMetallicRoughness": {
        "baseColorTexture": {
          "index": 1
        },
        "metallicFactor": 0.0,
        "metallicRoughnessTexture": {
          "index": 2,
          "texCoord": 1
        }
      }
    },
    {
      "doubleSided": true,
      "name": "WOOD",
      "occlusionTexture": {
        "index": 2,
        "texCoord": 1
      },
      "pbrMetallicRoughness": {
        "baseColorTexture": {
          "index": 4
        },
        "metallicFactor": 0.0,
        "metallicRoughnessTexture": {
          "index": 2,
          "texCoord": 1
        },
        "roughnessFactor": 0.6114710366
      }
    }
  ],
  "meshes": [
    {
      "name": "Plane001_FLOOR_0",
      "primitives": [
        {
          "attributes": {
            "NORMAL": 1,
            "POSITION": 0,
            "TEXCOORD_0": 2
          },
          "indices": 3,
          "material": 0,
          "mode": 4
        }
      ]
    },
    {
      "name": "Kolton_Rocking_Chair_FABRIC_0",
      "primitives": [
        {
          "attributes": {
            "NORMAL": 5,
            "POSITION": 4,
            "TANGENT": 6,
            "TEXCOORD_0": 7,
            "TEXCOORD_1": 8,
            "TEXCOORD_2": 9
          },
          "indices": 10,
          "material": 1,
          "mode": 4
        }
      ]
    },
    {
      "name": "Kolton_Rocking_Chair_WOOD_0",
      "primitives": [
        {
          "attributes": {
            "NORMAL": 12,
            "POSITION": 11,
            "TEXCOORD_0": 13,
            "TEXCOORD_1": 14,
            "TEXCOORD_2": 15
          },
          "indices": 16,
          "material": 2,
          "mode": 4
        }
      ]
    }
  ],
  "nodes": [
    {
      "children": [1],
      "matrix": [
        0.008996239863336086, 0.0, 0.0, 0.0, 0.0, 1.997566526265279e-18,
        -0.008996239863336086, 0.0, 0.0, 0.008996239863336086,
        1.997566526265279e-18, 0.0, 0.0, 0.0, 0.0, 1.0
      ],
      "name": "Sketchfab_model"
    },
    {
      "children": [2],
      "matrix": [
        1.0, 0.0, 0.0, 0.0, 0.0, 0.0, 1.0, 0.0, 0.0, -1.0, 0.0, 0.0, 0.0, 0.0,
        0.0, 1.0
      ],
      "name": "95b0dd2e14a942d483d1ba719ad9e9d6.fbx"
    },
    {
      "children": [3, 5],
      "name": "RootNode"
    },
    {
      "children": [4],
      "matrix": [
        1.0, 0.0, 0.0, 0.0, 0.0, 2.220446049250313e-16, -1.0, 0.0, 0.0, 1.0,
        2.220446049250313e-16, 0.0, 0.0, 0.0, 0.0, 1.0
      ],
      "name": "Plane001"
    },
    {
      "mesh": 0,
      "name": "Plane001_FLOOR_0"
    },
    {
      "children": [6, 7],
      "matrix": [
        1.0, 0.0, 0.0, 0.0, 0.0, 2.220446049250313e-16, -1.0, 0.0, 0.0, 1.0,
        2.220446049250313e-16, 0.0, 3.0517578125e-5, 0.0, 0.0, 1.0
      ],
      "name": "Kolton_Rocking_Chair"
    },
    {
      "mesh": 1,
      "name": "Kolton_Rocking_Chair_FABRIC_0"
    },
    {
      "mesh": 2,
      "name": "Kolton_Rocking_Chair_WOOD_0"
    }
  ],
  "samplers": [
    {
      "magFilter": 9729,
      "minFilter": 9987,
      "wrapS": 10497,
      "wrapT": 10497
    }
  ],
  "scene": 0,
  "scenes": [
    {
      "name": "Sketchfab_Scene",
      "nodes": [0]
    }
  ],
  "textures": [
    {
      "sampler": 0,
      "source": 0
    },
    {
      "sampler": 0,
      "source": 1
    },
    {
      "sampler": 0,
      "source": 2
    },
    {
      "sampler": 0,
      "source": 3
    },
    {
      "sampler": 0,
      "source": 4
    }
  ]
}
